<svg width="828" height="161" viewBox="0 0 828 161" fill="none" xmlns="http://www.w3.org/2000/svg">
<path d="M93.6683 15.6927L95.79 16.9718L97.8803 15.6421C120.091 1.51326 142.228 1.95726 158.681 11.6107C175.197 21.3006 186.596 40.6274 186.473 65.4905C186.224 115.513 145.296 155.891 95.0212 155.641C44.7466 155.391 4.22139 114.609 4.46987 64.5864C4.59311 39.7776 16.2941 21.2103 32.979 11.9822C49.6661 2.75287 71.8891 2.5636 93.6683 15.6927Z" fill="#F47601" stroke="#F47601" stroke-width="8"/>
<path d="M109.727 88.8261C107.963 77.5342 112.8 70.0167 118.774 66.7015C119.714 62.717 122.145 53.5379 123.257 52.0705C124.647 50.2363 127.439 44.2664 129.252 49.7989C130.703 54.2248 132.573 60.9139 133.326 63.7052C133.966 63.3785 134.251 62.8203 134.256 61.7911C134.267 59.4897 136.974 53.0465 137.528 51.6811C138.46 49.3843 141.341 43.8752 143.523 49.4095C145.705 54.9438 161.819 83.3098 173.52 105.922C166.601 117.1 155.423 135.729 129.874 144.778L131.705 111.95C126.638 112.845 121.73 112.514 119.738 111.89C110.547 109.012 106.009 100.609 105.078 98.0087C103.262 92.9365 106.652 90.0382 109.727 88.8261Z" fill="white"/>
<path d="M118.774 66.7015C119.714 62.717 122.145 53.5379 123.257 52.0705C124.647 50.2363 127.439 44.2664 129.252 49.7989C130.703 54.2248 132.573 60.9139 133.326 63.7052M133.326 63.7052C131.962 64.4012 128.983 64.0471 123.654 64.9604C115.822 66.3024 107.496 74.5461 109.727 88.8261C106.652 90.0382 103.262 92.9365 105.078 98.0087C106.009 100.609 110.547 109.012 119.738 111.89C121.73 112.514 126.638 112.845 131.705 111.95L129.874 144.778C155.423 135.729 166.601 117.1 173.52 105.922C161.819 83.3098 145.705 54.9438 143.523 49.4095C141.341 43.8752 138.46 49.3843 137.528 51.6811C136.974 53.0465 134.267 59.4897 134.256 61.7911C134.251 62.8203 133.966 63.3785 133.326 63.7052Z" stroke="#F47601" stroke-width="4" stroke-linecap="round"/>
<path d="M85.1635 69.6156C92.6153 50.0335 70.7921 40.6426 56.9531 43.1139C44.7108 45.3 33.2966 49.6612 24.4845 71.3244C11.7101 102.728 27.7124 104.325 33.5331 106.986L27.7124 117.632C33.459 125.984 65.8198 154.607 94.7786 151.697L81.4375 99.5347C88.8893 98.4702 95.9802 96.9042 101.132 84.6311C106.283 72.3581 96.8734 69.6156 85.1635 69.6156Z" fill="white"/>
<path d="M33.5331 106.986C27.7124 104.325 11.7101 102.728 24.4845 71.3244C33.2966 49.6612 44.7108 45.3 56.9531 43.1139C70.7921 40.6426 92.6153 50.0335 85.1635 69.6156C96.8734 69.6156 106.283 72.3581 101.132 84.6311C95.9802 96.9042 88.8893 98.4702 81.4375 99.5347L94.7786 151.697C65.8198 154.607 33.459 125.984 27.7124 117.632L33.5331 106.986ZM33.5331 106.986C51.6304 113.374 56.846 100.519 48.9689 69.6156" stroke="#F47601" stroke-width="4" stroke-linecap="round" stroke-linejoin="round"/>
<path d="M283.448 73.5498H274.736V92.7738C274.736 93.3018 274.64 93.6618 274.448 93.8538C274.304 94.0458 273.968 94.1418 273.44 94.1418H266.168C265.64 94.1418 265.256 94.0458 265.016 93.8538C264.824 93.6618 264.728 93.3018 264.728 92.7738V42.8778C264.728 41.9658 265.208 41.5098 266.168 41.5098H273.44C274.304 41.5098 274.736 41.9658 274.736 42.8778V65.3418H283.448C283.832 65.3418 284.168 65.3898 284.456 65.4858C284.744 65.5818 284.888 65.9658 284.888 66.6378V72.2538C284.888 72.7818 284.744 73.1418 284.456 73.3338C284.216 73.4778 283.88 73.5498 283.448 73.5498ZM250.544 49.7178H231.824C231.44 49.7178 231.08 49.6458 230.744 49.5018C230.456 49.3098 230.312 48.8778 230.312 48.2058V43.5978C230.312 42.9258 230.456 42.5178 230.744 42.3738C231.08 42.1818 231.44 42.0858 231.824 42.0858H250.544C251.6 42.0858 252.128 42.6138 252.128 43.6698V48.1338C252.128 48.6618 252.032 49.0698 251.84 49.3578C251.648 49.5978 251.216 49.7178 250.544 49.7178ZM259.76 60.0858H222.032C221.024 60.0858 220.52 59.5578 220.52 58.5018V54.0378C220.52 53.0298 221.048 52.5258 222.104 52.5258H259.76C260.816 52.5258 261.344 53.0298 261.344 54.0378V58.5738C261.344 59.5818 260.816 60.0858 259.76 60.0858ZM241.4 87.2298C239.24 87.2298 237.2 86.9178 235.28 86.2938C233.36 85.6698 231.68 84.8058 230.24 83.7018C228.8 82.5978 227.648 81.2778 226.784 79.7418C225.968 78.2058 225.56 76.5258 225.56 74.7018C225.56 72.9258 225.968 71.2698 226.784 69.7338C227.648 68.1978 228.8 66.8778 230.24 65.7738C231.68 64.6698 233.36 63.8058 235.28 63.1818C237.248 62.5578 239.312 62.2458 241.472 62.2458C243.632 62.2458 245.672 62.5578 247.592 63.1818C249.56 63.8058 251.264 64.6698 252.704 65.7738C254.144 66.8778 255.272 68.1978 256.088 69.7338C256.952 71.2698 257.384 72.9258 257.384 74.7018C257.384 76.5258 256.952 78.2058 256.088 79.7418C255.272 81.2778 254.144 82.5978 252.704 83.7018C251.264 84.8058 249.56 85.6698 247.592 86.2938C245.672 86.9178 243.608 87.2298 241.4 87.2298ZM276.032 109.622H236.792C235.784 109.622 234.944 109.526 234.272 109.334C233.648 109.19 233.144 108.926 232.76 108.542C232.424 108.158 232.184 107.63 232.04 106.958C231.896 106.286 231.824 105.446 231.824 104.438V92.1978C231.824 91.2378 232.304 90.7578 233.264 90.7578H240.32C241.328 90.7578 241.832 91.2378 241.832 92.1978V100.478C241.832 101.198 242.192 101.558 242.912 101.558H276.032C276.416 101.558 276.752 101.654 277.04 101.846C277.376 101.99 277.544 102.326 277.544 102.854V108.326C277.544 108.998 277.376 109.382 277.04 109.478C276.752 109.574 276.416 109.622 276.032 109.622ZM241.472 69.4458C239.408 69.4458 237.776 69.9738 236.576 71.0298C235.424 72.0858 234.848 73.3098 234.848 74.7018C234.848 76.1418 235.448 77.4138 236.648 78.5178C237.848 79.6218 239.456 80.1738 241.472 80.1738C243.488 80.1738 245.096 79.6218 246.296 78.5178C247.496 77.4138 248.096 76.1418 248.096 74.7018C248.096 73.3098 247.496 72.0858 246.296 71.0298C245.144 69.9738 243.536 69.4458 241.472 69.4458ZM351.231 75.6378H342.303V109.19C342.303 109.766 342.207 110.126 342.015 110.27C341.871 110.462 341.535 110.558 341.007 110.558H333.735C333.207 110.558 332.823 110.462 332.583 110.27C332.391 110.126 332.295 109.766 332.295 109.19V42.8778C332.295 42.3498 332.391 41.9898 332.583 41.7978C332.823 41.6058 333.207 41.5098 333.735 41.5098H341.007C341.535 41.5098 341.871 41.6058 342.015 41.7978C342.207 41.9898 342.303 42.3498 342.303 42.8778V67.4298H351.231C351.663 67.4298 351.999 67.5018 352.239 67.6458C352.527 67.7418 352.671 68.1258 352.671 68.7978V74.2698C352.671 74.8458 352.527 75.2298 352.239 75.4218C351.999 75.5658 351.663 75.6378 351.231 75.6378ZM320.271 90.3978H296.799C295.695 90.3978 294.783 90.3498 294.063 90.2538C293.391 90.1098 292.863 89.8698 292.479 89.5338C292.095 89.1498 291.831 88.6458 291.687 88.0218C291.543 87.3498 291.471 86.4618 291.471 85.3578V51.5898C291.471 49.5258 291.831 48.2058 292.551 47.6298C293.319 47.0538 294.591 46.7658 296.367 46.7658H320.271C321.279 46.7658 322.095 46.8138 322.719 46.9098C323.343 47.0058 323.823 47.2218 324.159 47.5578C324.543 47.8938 324.807 48.3978 324.951 49.0698C325.095 49.6938 325.167 50.5338 325.167 51.5898V85.3578C325.167 86.4138 325.095 87.2778 324.951 87.9498C324.807 88.6218 324.543 89.1498 324.159 89.5338C323.823 89.8698 323.343 90.1098 322.719 90.2538C322.095 90.3498 321.279 90.3978 320.271 90.3978ZM315.231 56.3418C315.231 55.7178 315.183 55.3338 315.087 55.1898C314.991 54.9978 314.655 54.9018 314.079 54.9018H302.847C302.223 54.9018 301.815 54.9738 301.623 55.1178C301.479 55.2618 301.407 55.6698 301.407 56.3418V80.8218C301.407 81.4938 301.479 81.9018 301.623 82.0458C301.815 82.1898 302.223 82.2618 302.847 82.2618H314.079C314.655 82.2618 314.991 82.1898 315.087 82.0458C315.183 81.8538 315.231 81.4458 315.231 80.8218V56.3418ZM386.902 69.0138C383.446 69.0138 380.278 68.7018 377.398 68.0778C374.566 67.4058 372.118 66.4938 370.054 65.3418C367.99 64.1418 366.382 62.7258 365.23 61.0938C364.126 59.4618 363.574 57.6618 363.574 55.6938C363.574 53.6778 364.126 51.8538 365.23 50.2218C366.382 48.5898 367.99 47.1978 370.054 46.0458C372.118 44.8458 374.566 43.9338 377.398 43.3098C380.278 42.6378 383.446 42.3018 386.902 42.3018C390.358 42.3018 393.502 42.6378 396.334 43.3098C399.214 43.9338 401.662 44.8458 403.678 46.0458C405.742 47.1978 407.326 48.5898 408.43 50.2218C409.534 51.8538 410.086 53.6778 410.086 55.6938C410.086 57.7098 409.534 59.5338 408.43 61.1658C407.326 62.7978 405.742 64.1898 403.678 65.3418C401.662 66.4938 399.214 67.4058 396.334 68.0778C393.502 68.7018 390.358 69.0138 386.902 69.0138ZM417.79 80.3178H356.014C355.342 80.3178 354.934 80.2218 354.79 80.0298C354.646 79.7898 354.574 79.3818 354.574 78.8058V73.6938C354.574 73.1658 354.67 72.8058 354.862 72.6138C355.054 72.3738 355.438 72.2538 356.014 72.2538H417.79C418.222 72.2538 418.582 72.3498 418.87 72.5418C419.158 72.7338 419.302 73.1178 419.302 73.6938V78.8058C419.302 79.8138 418.798 80.3178 417.79 80.3178ZM404.182 109.406H370.054C368.854 109.406 367.894 109.334 367.174 109.19C366.454 109.046 365.878 108.758 365.446 108.326C365.062 107.942 364.798 107.414 364.654 106.742C364.51 106.07 364.438 105.206 364.438 104.15V90.0378C364.438 87.9258 364.798 86.5098 365.518 85.7898C366.238 85.0698 367.606 84.7098 369.622 84.7098H403.822C405.022 84.7098 405.982 84.8058 406.702 84.9978C407.422 85.1418 407.974 85.4298 408.358 85.8618C408.79 86.2458 409.078 86.7978 409.222 87.5178C409.366 88.1898 409.438 89.0538 409.438 90.1098V104.222C409.438 105.278 409.342 106.142 409.15 106.814C409.006 107.486 408.718 108.014 408.286 108.398C407.902 108.782 407.374 109.046 406.702 109.19C406.03 109.334 405.19 109.406 404.182 109.406ZM386.902 50.1498C382.726 50.1498 379.51 50.7018 377.254 51.8058C374.998 52.9098 373.87 54.2058 373.87 55.6938C373.87 56.3658 374.158 57.0378 374.734 57.7098C375.31 58.3338 376.15 58.9098 377.254 59.4378C378.406 59.9658 379.774 60.3978 381.358 60.7338C382.99 61.0698 384.838 61.2378 386.902 61.2378C390.982 61.2378 394.15 60.6618 396.406 59.5098C398.662 58.3578 399.79 57.0858 399.79 55.6938C399.79 54.2058 398.662 52.9098 396.406 51.8058C394.15 50.7018 390.982 50.1498 386.902 50.1498ZM399.43 93.7098C399.43 93.1338 399.166 92.8458 398.638 92.8458H375.238C374.662 92.8458 374.374 93.1578 374.374 93.7818V100.406C374.374 100.982 374.662 101.27 375.238 101.27H398.566C398.902 101.27 399.118 101.246 399.214 101.198C399.358 101.102 399.43 100.814 399.43 100.334V93.7098ZM485.501 81.5418H423.725C423.053 81.5418 422.645 81.4458 422.501 81.2538C422.357 81.0138 422.285 80.6058 422.285 80.0298V74.8458C422.285 74.3178 422.381 73.9578 422.573 73.7658C422.765 73.5258 423.149 73.4058 423.725 73.4058H449.645V67.4298H438.053C435.941 67.4298 434.429 66.9498 433.517 65.9898C432.653 64.9818 432.221 63.5418 432.221 61.6698V47.7018C432.221 45.6378 432.629 44.2938 433.445 43.6698C434.309 42.9978 435.749 42.6618 437.765 42.6618H475.781C476.693 42.6618 477.149 43.1178 477.149 44.0298V49.3578C477.149 49.8858 477.053 50.2458 476.861 50.4378C476.669 50.6298 476.309 50.7258 475.781 50.7258H443.453C442.685 50.7258 442.301 51.1098 442.301 51.8778V58.2858C442.301 59.0538 442.685 59.4378 443.453 59.4378H476.141C477.197 59.4378 477.725 59.8458 477.725 60.6618V65.9178C477.725 66.9258 477.197 67.4298 476.141 67.4298H459.653V73.4058H485.501C485.933 73.4058 486.293 73.5018 486.581 73.6938C486.869 73.8858 487.013 74.2698 487.013 74.8458V80.0298C487.013 81.0378 486.509 81.5418 485.501 81.5418ZM454.613 110.918C450.965 110.918 447.701 110.582 444.821 109.91C441.989 109.238 439.565 108.302 437.549 107.102C435.581 105.95 434.069 104.582 433.013 102.998C432.005 101.462 431.501 99.7818 431.501 97.9578C431.501 96.1338 432.005 94.4298 433.013 92.8458C434.069 91.2618 435.581 89.8938 437.549 88.7418C439.565 87.5898 441.989 86.6778 444.821 86.0058C447.701 85.3338 450.965 84.9978 454.613 84.9978C458.261 84.9978 461.501 85.3338 464.333 86.0058C467.213 86.6778 469.637 87.5898 471.605 88.7418C473.573 89.8938 475.085 91.2618 476.141 92.8458C477.197 94.4298 477.725 96.1338 477.725 97.9578C477.725 99.7818 477.197 101.462 476.141 102.998C475.085 104.582 473.573 105.95 471.605 107.102C469.637 108.302 467.213 109.238 464.333 109.91C461.501 110.582 458.261 110.918 454.613 110.918ZM454.613 92.7018C450.677 92.7018 447.533 93.2298 445.181 94.2858C442.877 95.2938 441.725 96.5418 441.725 98.0298C441.725 98.7018 442.013 99.3498 442.589 99.9738C443.213 100.598 444.077 101.174 445.181 101.702C446.333 102.182 447.701 102.566 449.285 102.854C450.869 103.19 452.645 103.358 454.613 103.358C456.581 103.358 458.357 103.19 459.941 102.854C461.525 102.566 462.869 102.182 463.973 101.702C465.125 101.174 465.989 100.598 466.565 99.9738C467.189 99.3498 467.501 98.7018 467.501 98.0298C467.501 96.5418 466.325 95.2938 463.973 94.2858C461.669 93.2298 458.549 92.7018 454.613 92.7018ZM545.076 110.27H504.9C503.844 110.27 502.98 110.174 502.308 109.982C501.684 109.838 501.18 109.574 500.796 109.19C500.46 108.854 500.22 108.374 500.076 107.75C499.98 107.174 499.932 106.454 499.932 105.59V96.2298C499.932 95.3178 499.98 94.5738 500.076 93.9978C500.22 93.4218 500.46 92.9658 500.796 92.6298C501.18 92.2458 501.684 91.9818 502.308 91.8378C502.932 91.6938 503.772 91.6218 504.828 91.6218H534.204C534.636 91.6218 534.852 91.3578 534.852 90.8298V89.1738C534.852 88.5978 534.612 88.3098 534.132 88.3098H501.228C500.7 88.3098 500.316 88.2138 500.076 88.0218C499.884 87.8298 499.788 87.4458 499.788 86.8698V81.9738C499.788 81.0618 500.268 80.6058 501.228 80.6058H517.356V76.3578H491.436C490.86 76.3578 490.476 76.2618 490.284 76.0698C490.092 75.8298 489.996 75.4458 489.996 74.9178V70.0218C489.996 69.4458 490.068 69.0378 490.212 68.7978C490.356 68.5578 490.764 68.4378 491.436 68.4378H553.212C554.22 68.4378 554.724 68.9658 554.724 70.0218V74.9178C554.724 75.4938 554.58 75.8778 554.292 76.0698C554.004 76.2618 553.644 76.3578 553.212 76.3578H527.364V80.6058H539.532C541.692 80.6058 543.084 80.9658 543.708 81.6858C544.332 82.3578 544.644 83.5338 544.644 85.2138V94.3578C544.644 95.3178 544.572 96.1098 544.428 96.7338C544.332 97.3098 544.116 97.7658 543.78 98.1018C543.444 98.4378 542.94 98.6778 542.268 98.8218C541.596 98.9178 540.732 98.9658 539.676 98.9658H510.516C510.036 98.9658 509.796 99.2058 509.796 99.6858V101.774C509.796 102.302 510.06 102.566 510.588 102.566H545.004C545.532 102.566 545.916 102.638 546.156 102.782C546.396 102.926 546.516 103.31 546.516 103.934V108.83C546.516 109.79 546.036 110.27 545.076 110.27ZM539.82 64.4058H505.188C504.084 64.4058 503.196 64.3578 502.524 64.2618C501.852 64.1178 501.324 63.8778 500.94 63.5418C500.556 63.1578 500.292 62.6298 500.148 61.9578C500.004 61.2858 499.932 60.4218 499.932 59.3658V46.4778C499.932 45.4698 500.004 44.6538 500.148 44.0298C500.34 43.4058 500.628 42.9258 501.012 42.5898C501.444 42.2538 501.972 42.0378 502.596 41.9418C503.22 41.7978 503.964 41.7258 504.828 41.7258H539.82C540.828 41.7258 541.644 41.7738 542.268 41.8698C542.892 41.9658 543.372 42.1818 543.708 42.5178C544.092 42.8538 544.356 43.3338 544.5 43.9578C544.644 44.5818 544.716 45.4218 544.716 46.4778V59.3658C544.716 60.4218 544.644 61.2858 544.5 61.9578C544.356 62.5818 544.092 63.0858 543.708 63.4698C543.372 63.8058 542.892 64.0458 542.268 64.1898C541.644 64.3338 540.828 64.4058 539.82 64.4058ZM534.78 50.8698C534.78 50.2458 534.732 49.8618 534.636 49.7178C534.54 49.5258 534.204 49.4298 533.628 49.4298H511.236C510.612 49.4298 510.228 49.5018 510.084 49.6458C509.94 49.7898 509.868 50.1978 509.868 50.8698V55.3338C509.868 56.0058 509.94 56.4138 510.084 56.5578C510.228 56.7018 510.612 56.7738 511.236 56.7738H533.628C534.204 56.7738 534.54 56.6778 534.636 56.4858C534.732 56.2938 534.78 55.9098 534.78 55.3338V50.8698ZM620.995 98.8218H559.147C558.523 98.8218 558.115 98.6778 557.923 98.3898C557.779 98.1018 557.707 97.7418 557.707 97.3098V92.1258C557.707 91.5978 557.779 91.2138 557.923 90.9738C558.115 90.7338 558.523 90.6138 559.147 90.6138H585.067V78.8778H572.395C571.243 78.8778 570.307 78.8058 569.587 78.6618C568.867 78.5178 568.291 78.2538 567.859 77.8698C567.475 77.4858 567.211 76.9578 567.067 76.2858C566.923 75.6138 566.851 74.7498 566.851 73.6938V45.9738C566.851 45.0618 567.283 44.6058 568.147 44.6058H575.347C576.307 44.6058 576.787 45.0618 576.787 45.9738V54.2538H603.283V45.9018C603.283 44.9418 603.739 44.4618 604.651 44.4618H611.851C612.763 44.4618 613.219 44.9418 613.219 45.9018V73.9098C613.219 75.7338 612.859 77.0298 612.139 77.7978C611.419 78.5178 609.955 78.8778 607.747 78.8778H595.075V90.6138H620.995C622.003 90.6138 622.507 91.1178 622.507 92.1258V97.3098C622.507 98.3178 622.003 98.8218 620.995 98.8218ZM603.283 62.4618H576.787V69.5898C576.787 70.3098 577.147 70.6698 577.867 70.6698H602.203C602.923 70.6698 603.283 70.3098 603.283 69.5898V62.4618ZM688.706 99.0378H626.858C626.234 99.0378 625.826 98.8938 625.634 98.6058C625.49 98.3178 625.418 97.9578 625.418 97.5258V92.4858C625.418 91.9578 625.49 91.5738 625.634 91.3338C625.826 91.0938 626.234 90.9738 626.858 90.9738H652.778V84.7098C650.426 84.3258 648.29 83.7018 646.37 82.8378C644.45 81.9258 642.818 80.8458 641.474 79.5978C640.13 78.3498 639.074 76.9338 638.306 75.3498C637.586 73.7658 637.226 72.0618 637.226 70.2378C637.226 66.8298 638.474 63.8778 640.97 61.3818H631.97C630.914 61.3818 630.386 60.8298 630.386 59.7258V54.9018C630.386 53.8938 630.938 53.3898 632.042 53.3898H683.594C684.65 53.3898 685.178 53.8938 685.178 54.9018V59.7978C685.178 60.8538 684.65 61.3818 683.594 61.3818H674.522C677.066 63.9258 678.338 66.8778 678.338 70.2378C678.338 72.0138 677.954 73.6938 677.186 75.2778C676.466 76.8618 675.41 78.3018 674.018 79.5978C672.674 80.8458 671.042 81.9258 669.122 82.8378C667.25 83.7018 665.138 84.3258 662.786 84.7098V90.9738H688.706C689.714 90.9738 690.218 91.4778 690.218 92.4858V97.5258C690.218 98.5338 689.714 99.0378 688.706 99.0378ZM657.746 61.9578C656.066 61.9578 654.554 62.1738 653.21 62.6058C651.866 63.0378 650.738 63.6138 649.826 64.3338C648.914 65.0058 648.218 65.7978 647.738 66.7098C647.258 67.6218 647.018 68.5578 647.018 69.5178C647.018 70.5258 647.258 71.4858 647.738 72.3978C648.218 73.2618 648.914 74.0538 649.826 74.7738C650.738 75.4458 651.866 75.9978 653.21 76.4298C654.554 76.8138 656.066 77.0058 657.746 77.0058C659.378 77.0058 660.866 76.8138 662.21 76.4298C663.554 75.9978 664.682 75.4458 665.594 74.7738C666.554 74.0538 667.274 73.2618 667.754 72.3978C668.282 71.4858 668.546 70.5258 668.546 69.5178C668.546 68.5578 668.282 67.6218 667.754 66.7098C667.274 65.7978 666.554 65.0058 665.594 64.3338C664.682 63.6138 663.554 63.0378 662.21 62.6058C660.866 62.1738 659.378 61.9578 657.746 61.9578ZM669.05 50.0778H646.514C646.13 50.0778 645.77 50.0058 645.434 49.8618C645.146 49.6698 645.002 49.2618 645.002 48.6378V43.4538C645.002 42.8298 645.146 42.4458 645.434 42.3018C645.77 42.1098 646.13 42.0138 646.514 42.0138H669.05C670.106 42.0138 670.634 42.5178 670.634 43.5258V48.5658C670.634 49.0938 670.538 49.4778 670.346 49.7178C670.154 49.9578 669.722 50.0778 669.05 50.0778ZM724.089 80.2458C723.704 80.7738 723.32 81.0378 722.937 81.0378C722.601 81.0378 722.168 80.8458 721.64 80.4618C720.92 80.0298 720.104 79.4298 719.192 78.6618C718.328 77.8938 717.44 77.0538 716.528 76.1418C715.616 75.1818 714.728 74.1738 713.864 73.1178C713 72.0618 712.256 70.9818 711.632 69.8778C710.096 72.6618 708.296 75.1818 706.232 77.4378C704.168 79.6938 701.912 81.5898 699.464 83.1258C698.792 83.5098 698.336 83.7018 698.096 83.7018C697.904 83.6538 697.64 83.4138 697.304 82.9818L693.92 78.6618C693.536 78.1818 693.248 77.7738 693.056 77.4378C692.864 77.0538 693.104 76.5978 693.776 76.0698C696.368 74.1978 698.528 72.1098 700.256 69.8058C702.032 67.4538 703.448 64.9818 704.504 62.3898C705.608 59.7978 706.4 57.1578 706.88 54.4698C707.36 51.7338 707.6 49.0698 707.6 46.4778C707.6 45.8058 707.696 45.3738 707.888 45.1818C708.08 44.9898 708.512 44.9178 709.184 44.9658L715.88 45.3258C716.408 45.3738 716.768 45.4938 716.96 45.6858C717.2 45.8778 717.32 46.2378 717.32 46.7658C717.32 48.8298 717.2 50.8458 716.96 52.8138C716.72 54.7818 716.385 56.7258 715.952 58.6458C717.104 62.0058 718.688 64.8618 720.704 67.2138C722.72 69.5178 724.881 71.5818 727.184 73.4058C727.664 73.7898 727.881 74.1258 727.833 74.4138C727.833 74.7018 727.689 75.0378 727.401 75.4218L724.089 80.2458ZM754.761 109.406H713.288C712.28 109.406 711.44 109.31 710.768 109.118C710.144 108.974 709.64 108.71 709.256 108.326C708.92 107.942 708.68 107.414 708.536 106.742C708.392 106.07 708.32 105.23 708.32 104.222V88.1658C708.32 87.1578 708.8 86.6538 709.76 86.6538H716.888C717.848 86.6538 718.328 87.1578 718.328 88.1658V100.118C718.328 100.838 718.712 101.198 719.48 101.198H754.761C755.145 101.198 755.481 101.294 755.769 101.486C756.057 101.63 756.201 101.966 756.201 102.494V108.11C756.201 108.782 756.057 109.166 755.769 109.262C755.481 109.358 755.145 109.406 754.761 109.406ZM723.656 64.2618C722.744 64.2618 722.288 63.7818 722.288 62.8218V57.6378C722.288 56.9658 722.408 56.5818 722.648 56.4858C722.888 56.3418 723.224 56.2698 723.656 56.2698H730.929V44.0298C730.929 43.5018 731.025 43.1418 731.217 42.9498C731.457 42.7578 731.84 42.6618 732.368 42.6618H739.137C739.665 42.6618 740.025 42.7578 740.217 42.9498C740.409 43.1418 740.505 43.5018 740.505 44.0298V86.4378C740.505 86.9658 740.409 87.3258 740.217 87.5178C740.025 87.6618 739.665 87.7338 739.137 87.7338H732.368C731.84 87.7338 731.457 87.6618 731.217 87.5178C731.025 87.3258 730.929 86.9658 730.929 86.4378V64.2618H723.656ZM753.105 89.3898H745.976C745.449 89.3898 745.089 89.2938 744.897 89.1018C744.705 88.9098 744.609 88.5498 744.609 88.0218V42.8778C744.609 41.9658 745.088 41.5098 746.048 41.5098H753.105C753.633 41.5098 753.993 41.6058 754.185 41.7978C754.377 41.9898 754.473 42.3498 754.473 42.8778V88.0218C754.473 88.5498 754.377 88.9098 754.185 89.1018C753.993 89.2938 753.633 89.3898 753.105 89.3898ZM792.447 72.9018C789.663 73.0938 786.783 73.2378 783.807 73.3338C780.831 73.3818 777.903 73.4298 775.023 73.4778V83.1258C775.023 83.9898 775.455 84.4218 776.319 84.4218C779.535 84.5178 783.159 84.4458 787.191 84.2058C791.223 83.9178 795.159 83.4378 798.999 82.7658C799.527 82.6698 799.887 82.7178 800.079 82.9098C800.271 83.0538 800.415 83.3178 800.511 83.7018L801.375 88.9578C801.471 89.4858 801.423 89.8458 801.231 90.0378C801.039 90.2298 800.679 90.3978 800.151 90.5418C798.135 91.0218 795.807 91.4298 793.167 91.7658C790.575 92.1018 787.911 92.3658 785.175 92.5578C782.439 92.7498 779.751 92.8698 777.111 92.9178C774.519 92.9178 772.191 92.8698 770.127 92.7738C768.399 92.7258 767.103 92.4138 766.239 91.8378C765.423 91.2618 765.015 89.9658 765.015 87.9498V51.2298C765.015 50.2698 765.087 49.5018 765.231 48.9258C765.375 48.3018 765.615 47.8218 765.951 47.4858C766.335 47.1498 766.839 46.9338 767.463 46.8378C768.135 46.6938 768.975 46.6218 769.983 46.6218H794.463C794.991 46.6218 795.351 46.7178 795.543 46.9098C795.783 47.0538 795.903 47.3898 795.903 47.9178V53.6058C795.903 54.1338 795.783 54.4698 795.543 54.6138C795.351 54.7578 794.991 54.8298 794.463 54.8298H776.031C775.551 54.8298 775.263 54.9258 775.167 55.1178C775.071 55.3098 775.023 55.5498 775.023 55.8378V65.3418C777.999 65.3418 780.927 65.3178 783.807 65.2698C786.735 65.2218 789.471 65.1258 792.015 64.9818C793.071 64.9338 793.599 65.2938 793.599 66.0618V71.4618C793.599 72.3738 793.215 72.8538 792.447 72.9018ZM818.943 110.558H811.599C811.071 110.558 810.711 110.462 810.519 110.27C810.327 110.126 810.231 109.766 810.231 109.19V72.6138H800.439C799.959 72.6138 799.599 72.5418 799.359 72.3978C799.119 72.2058 798.999 71.8458 798.999 71.3178V65.7738C798.999 65.2458 799.119 64.8858 799.359 64.6938C799.599 64.5018 799.959 64.4058 800.439 64.4058H810.231V42.8778C810.231 42.3498 810.327 41.9898 810.519 41.7978C810.711 41.6058 811.071 41.5098 811.599 41.5098H818.943C819.471 41.5098 819.807 41.6058 819.951 41.7978C820.143 41.9898 820.239 42.3498 820.239 42.8778V109.19C820.239 109.766 820.143 110.126 819.951 110.27C819.807 110.462 819.471 110.558 818.943 110.558Z" fill="#F47601"/>
</svg>
